<mxfile host="65bd71144e">
    <diagram id="TTThRsh9VHPhYnITPpra" name="Page-1">
        <mxGraphModel dx="2020" dy="2997" grid="1" gridSize="10" guides="1" tooltips="1" connect="1" arrows="1" fold="1" page="1" pageScale="1" pageWidth="850" pageHeight="1100" math="0" shadow="0">
            <root>
                <mxCell id="0"/>
                <mxCell id="1" parent="0"/>
                <mxCell id="mL5J574sADA0zTKe58MP-1" value="" style="rounded=1;whiteSpace=wrap;html=1;" parent="1" vertex="1">
                    <mxGeometry x="270" y="200" width="170" height="240" as="geometry"/>
                </mxCell>
                <mxCell id="mL5J574sADA0zTKe58MP-2" value="" style="rounded=1;whiteSpace=wrap;html=1;" parent="1" vertex="1">
                    <mxGeometry x="560" y="200" width="120" height="240" as="geometry"/>
                </mxCell>
                <mxCell id="mL5J574sADA0zTKe58MP-3" value="VPN" style="rounded=1;whiteSpace=wrap;html=1;" parent="1" vertex="1">
                    <mxGeometry x="420" y="320" width="170" height="20" as="geometry"/>
                </mxCell>
                <mxCell id="mL5J574sADA0zTKe58MP-6" value="DataCenter transit vnet" style="text;html=1;align=center;verticalAlign=middle;resizable=0;points=[];autosize=1;strokeColor=none;fillColor=none;" parent="1" vertex="1">
                    <mxGeometry x="540" y="442" width="150" height="30" as="geometry"/>
                </mxCell>
                <mxCell id="mL5J574sADA0zTKe58MP-7" value="" style="rounded=1;whiteSpace=wrap;html=1;" parent="1" vertex="1">
                    <mxGeometry x="720" y="120" width="240" height="150" as="geometry"/>
                </mxCell>
                <mxCell id="mL5J574sADA0zTKe58MP-8" value="dbs" style="text;html=1;align=center;verticalAlign=middle;resizable=0;points=[];autosize=1;strokeColor=none;fillColor=none;" parent="1" vertex="1">
                    <mxGeometry x="835" y="270" width="30" height="20" as="geometry"/>
                </mxCell>
                <mxCell id="mL5J574sADA0zTKe58MP-9" value="" style="rounded=1;whiteSpace=wrap;html=1;" parent="1" vertex="1">
                    <mxGeometry x="720" y="400" width="240" height="150" as="geometry"/>
                </mxCell>
                <mxCell id="mL5J574sADA0zTKe58MP-10" value="vnet trabajo vpn" style="text;html=1;align=center;verticalAlign=middle;resizable=0;points=[];autosize=1;strokeColor=none;fillColor=none;" parent="1" vertex="1">
                    <mxGeometry x="790" y="550" width="100" height="20" as="geometry"/>
                </mxCell>
                <mxCell id="mL5J574sADA0zTKe58MP-37" value="PEER" style="edgeStyle=orthogonalEdgeStyle;rounded=0;orthogonalLoop=1;jettySize=auto;html=1;entryX=0.25;entryY=0;entryDx=0;entryDy=0;" parent="1" source="mL5J574sADA0zTKe58MP-11" target="mL5J574sADA0zTKe58MP-1" edge="1">
                    <mxGeometry relative="1" as="geometry">
                        <mxPoint x="320" y="240" as="targetPoint"/>
                        <Array as="points">
                            <mxPoint x="313" y="55"/>
                        </Array>
                    </mxGeometry>
                </mxCell>
                <mxCell id="mL5J574sADA0zTKe58MP-11" value="" style="rounded=1;whiteSpace=wrap;html=1;" parent="1" vertex="1">
                    <mxGeometry x="-90" y="-10" width="220" height="130" as="geometry"/>
                </mxCell>
                <mxCell id="mL5J574sADA0zTKe58MP-12" value="" style="rounded=1;whiteSpace=wrap;html=1;" parent="1" vertex="1">
                    <mxGeometry x="-90" y="-10" width="220" height="70" as="geometry"/>
                </mxCell>
                <mxCell id="mL5J574sADA0zTKe58MP-38" value="peer" style="edgeStyle=orthogonalEdgeStyle;rounded=0;orthogonalLoop=1;jettySize=auto;html=1;entryX=0.031;entryY=0.972;entryDx=0;entryDy=0;entryPerimeter=0;" parent="1" source="mL5J574sADA0zTKe58MP-14" target="mL5J574sADA0zTKe58MP-1" edge="1">
                    <mxGeometry relative="1" as="geometry"/>
                </mxCell>
                <mxCell id="mL5J574sADA0zTKe58MP-14" value="" style="rounded=1;whiteSpace=wrap;html=1;" parent="1" vertex="1">
                    <mxGeometry x="-150" y="360" width="220" height="130" as="geometry"/>
                </mxCell>
                <mxCell id="mL5J574sADA0zTKe58MP-15" value="" style="rounded=1;whiteSpace=wrap;html=1;" parent="1" vertex="1">
                    <mxGeometry x="-150" y="360" width="220" height="70" as="geometry"/>
                </mxCell>
                <mxCell id="mL5J574sADA0zTKe58MP-39" value="PEER" style="edgeStyle=orthogonalEdgeStyle;rounded=0;orthogonalLoop=1;jettySize=auto;html=1;entryX=0.5;entryY=1;entryDx=0;entryDy=0;" parent="1" source="mL5J574sADA0zTKe58MP-16" target="mL5J574sADA0zTKe58MP-1" edge="1">
                    <mxGeometry relative="1" as="geometry"/>
                </mxCell>
                <mxCell id="mL5J574sADA0zTKe58MP-16" value="" style="rounded=1;whiteSpace=wrap;html=1;" parent="1" vertex="1">
                    <mxGeometry x="20" y="600" width="220" height="130" as="geometry"/>
                </mxCell>
                <mxCell id="mL5J574sADA0zTKe58MP-17" value="" style="rounded=1;whiteSpace=wrap;html=1;" parent="1" vertex="1">
                    <mxGeometry x="20" y="600" width="220" height="70" as="geometry"/>
                </mxCell>
                <mxCell id="mL5J574sADA0zTKe58MP-27" value="Control plano dev" style="sketch=0;aspect=fixed;html=1;points=[];align=center;image;fontSize=12;image=img/lib/mscae/Kubernetes_Services.svg;" parent="1" vertex="1">
                    <mxGeometry x="-30" width="50" height="37" as="geometry"/>
                </mxCell>
                <mxCell id="mL5J574sADA0zTKe58MP-28" value="control plane staging" style="sketch=0;aspect=fixed;html=1;points=[];align=center;image;fontSize=12;image=img/lib/mscae/Kubernetes_Services.svg;" parent="1" vertex="1">
                    <mxGeometry x="-90" y="370" width="50" height="37" as="geometry"/>
                </mxCell>
                <mxCell id="mL5J574sADA0zTKe58MP-29" value="contorl plane prod" style="sketch=0;aspect=fixed;html=1;points=[];align=center;image;fontSize=12;image=img/lib/mscae/Kubernetes_Services.svg;" parent="1" vertex="1">
                    <mxGeometry x="80" y="613" width="50" height="37" as="geometry"/>
                </mxCell>
                <mxCell id="mL5J574sADA0zTKe58MP-30" value="" style="sketch=0;html=1;dashed=0;whitespace=wrap;fillColor=#2875E2;strokeColor=#ffffff;points=[[0.005,0.63,0],[0.1,0.2,0],[0.9,0.2,0],[0.5,0,0],[0.995,0.63,0],[0.72,0.99,0],[0.5,1,0],[0.28,0.99,0]];shape=mxgraph.kubernetes.icon;prIcon=pod" parent="1" vertex="1">
                    <mxGeometry x="-60" y="60" width="40" height="50" as="geometry"/>
                </mxCell>
                <mxCell id="mL5J574sADA0zTKe58MP-31" value="worker node" style="text;html=1;align=center;verticalAlign=middle;resizable=0;points=[];autosize=1;strokeColor=none;fillColor=none;" parent="1" vertex="1">
                    <mxGeometry x="-80" y="100" width="80" height="20" as="geometry"/>
                </mxCell>
                <mxCell id="mL5J574sADA0zTKe58MP-47" style="edgeStyle=orthogonalEdgeStyle;rounded=0;orthogonalLoop=1;jettySize=auto;html=1;entryX=0;entryY=0.5;entryDx=0;entryDy=0;entryPerimeter=0;strokeWidth=2;fillColor=#d5e8d4;strokeColor=#82b366;exitX=0.995;exitY=0.63;exitDx=0;exitDy=0;exitPerimeter=0;" parent="1" source="mL5J574sADA0zTKe58MP-32" target="mL5J574sADA0zTKe58MP-40" edge="1">
                    <mxGeometry relative="1" as="geometry">
                        <Array as="points">
                            <mxPoint x="-60" y="455"/>
                            <mxPoint x="400" y="455"/>
                            <mxPoint x="400" y="340"/>
                            <mxPoint x="600" y="340"/>
                            <mxPoint x="600" y="210"/>
                            <mxPoint x="830" y="210"/>
                            <mxPoint x="830" y="195"/>
                        </Array>
                    </mxGeometry>
                </mxCell>
                <mxCell id="mL5J574sADA0zTKe58MP-32" value="" style="sketch=0;html=1;dashed=0;whitespace=wrap;fillColor=#2875E2;strokeColor=#ffffff;points=[[0.005,0.63,0],[0.1,0.2,0],[0.9,0.2,0],[0.5,0,0],[0.995,0.63,0],[0.72,0.99,0],[0.5,1,0],[0.28,0.99,0]];shape=mxgraph.kubernetes.icon;prIcon=pod" parent="1" vertex="1">
                    <mxGeometry x="-100" y="430" width="40" height="50" as="geometry"/>
                </mxCell>
                <mxCell id="mL5J574sADA0zTKe58MP-33" value="worker node" style="text;html=1;align=center;verticalAlign=middle;resizable=0;points=[];autosize=1;strokeColor=none;fillColor=none;" parent="1" vertex="1">
                    <mxGeometry x="-120" y="470" width="80" height="20" as="geometry"/>
                </mxCell>
                <mxCell id="mL5J574sADA0zTKe58MP-34" value="" style="sketch=0;html=1;dashed=0;whitespace=wrap;fillColor=#2875E2;strokeColor=#ffffff;points=[[0.005,0.63,0],[0.1,0.2,0],[0.9,0.2,0],[0.5,0,0],[0.995,0.63,0],[0.72,0.99,0],[0.5,1,0],[0.28,0.99,0]];shape=mxgraph.kubernetes.icon;prIcon=pod" parent="1" vertex="1">
                    <mxGeometry x="60" y="670" width="40" height="50" as="geometry"/>
                </mxCell>
                <mxCell id="mL5J574sADA0zTKe58MP-35" value="worker node" style="text;html=1;align=center;verticalAlign=middle;resizable=0;points=[];autosize=1;strokeColor=none;fillColor=none;" parent="1" vertex="1">
                    <mxGeometry x="40" y="710" width="80" height="20" as="geometry"/>
                </mxCell>
                <mxCell id="mL5J574sADA0zTKe58MP-40" value="" style="shape=cylinder3;whiteSpace=wrap;html=1;boundedLbl=1;backgroundOutline=1;size=15;" parent="1" vertex="1">
                    <mxGeometry x="820" y="155" width="60" height="80" as="geometry"/>
                </mxCell>
                <mxCell id="mL5J574sADA0zTKe58MP-42" value="" style="sketch=0;aspect=fixed;html=1;points=[];align=center;image;fontSize=12;image=img/lib/mscae/DNS_Private_Zones.svg;" parent="1" vertex="1">
                    <mxGeometry x="20" y="-6.5" width="50" height="50" as="geometry"/>
                </mxCell>
                <mxCell id="mL5J574sADA0zTKe58MP-43" value="" style="sketch=0;aspect=fixed;html=1;points=[];align=center;image;fontSize=12;image=img/lib/mscae/DNS_Private_Zones.svg;" parent="1" vertex="1">
                    <mxGeometry x="-30" y="363.5" width="50" height="50" as="geometry"/>
                </mxCell>
                <mxCell id="mL5J574sADA0zTKe58MP-44" value="" style="sketch=0;aspect=fixed;html=1;points=[];align=center;image;fontSize=12;image=img/lib/mscae/DNS_Private_Zones.svg;" parent="1" vertex="1">
                    <mxGeometry x="140" y="600" width="50" height="50" as="geometry"/>
                </mxCell>
                <mxCell id="mL5J574sADA0zTKe58MP-46" style="edgeStyle=orthogonalEdgeStyle;rounded=0;orthogonalLoop=1;jettySize=auto;html=1;fillColor=#f8cecc;strokeColor=#b85450;strokeWidth=2;" parent="1" source="mL5J574sADA0zTKe58MP-45" target="mL5J574sADA0zTKe58MP-42" edge="1">
                    <mxGeometry relative="1" as="geometry">
                        <Array as="points">
                            <mxPoint x="620" y="488"/>
                            <mxPoint x="620" y="320"/>
                            <mxPoint x="330" y="320"/>
                            <mxPoint x="330" y="19"/>
                        </Array>
                        <mxPoint x="396.07000000000016" y="330.0588235294117" as="targetPoint"/>
                    </mxGeometry>
                </mxCell>
                <mxCell id="mL5J574sADA0zTKe58MP-45" value="dns" style="aspect=fixed;html=1;points=[];align=center;image;fontSize=12;image=img/lib/azure2/compute/VM_Images_Classic.svg;" parent="1" vertex="1">
                    <mxGeometry x="805.5" y="456" width="69" height="64" as="geometry"/>
                </mxCell>
                <mxCell id="GSVdhNLgLnMVehnlgmYs-1" value="" style="rounded=1;whiteSpace=wrap;html=1;" parent="1" vertex="1">
                    <mxGeometry x="-230" y="-890" width="640" height="680" as="geometry"/>
                </mxCell>
                <mxCell id="GSVdhNLgLnMVehnlgmYs-2" value="" style="rounded=1;whiteSpace=wrap;html=1;" parent="1" vertex="1">
                    <mxGeometry x="440" y="-490" width="130" height="280" as="geometry"/>
                </mxCell>
                <mxCell id="GSVdhNLgLnMVehnlgmYs-3" value="PEER" style="rounded=1;whiteSpace=wrap;html=1;" parent="1" vertex="1">
                    <mxGeometry x="240" y="-460" width="210" height="20" as="geometry"/>
                </mxCell>
                <mxCell id="24" style="edgeStyle=none;html=1;strokeColor=#CC0000;" parent="1" source="GSVdhNLgLnMVehnlgmYs-4" target="23" edge="1">
                    <mxGeometry relative="1" as="geometry">
                        <Array as="points">
                            <mxPoint x="280" y="-810"/>
                        </Array>
                    </mxGeometry>
                </mxCell>
                <mxCell id="GSVdhNLgLnMVehnlgmYs-4" value="" style="rounded=1;whiteSpace=wrap;html=1;" parent="1" vertex="1">
                    <mxGeometry x="-200" y="-860" width="420" height="110" as="geometry"/>
                </mxCell>
                <mxCell id="25" style="edgeStyle=none;html=1;" parent="1" source="GSVdhNLgLnMVehnlgmYs-5" target="23" edge="1">
                    <mxGeometry relative="1" as="geometry">
                        <Array as="points">
                            <mxPoint x="520" y="-645"/>
                            <mxPoint x="520" y="-939"/>
                        </Array>
                    </mxGeometry>
                </mxCell>
                <mxCell id="GSVdhNLgLnMVehnlgmYs-5" value="" style="rounded=1;whiteSpace=wrap;html=1;" parent="1" vertex="1">
                    <mxGeometry x="-200" y="-740" width="550" height="190" as="geometry"/>
                </mxCell>
                <mxCell id="GSVdhNLgLnMVehnlgmYs-6" value="" style="rounded=1;whiteSpace=wrap;html=1;" parent="1" vertex="1">
                    <mxGeometry x="-200" y="-536.5" width="420" height="110" as="geometry"/>
                </mxCell>
                <mxCell id="GSVdhNLgLnMVehnlgmYs-7" value="aks vnet" style="text;html=1;align=center;verticalAlign=middle;resizable=0;points=[];autosize=1;strokeColor=none;fillColor=none;" parent="1" vertex="1">
                    <mxGeometry x="-30" y="-200" width="60" height="20" as="geometry"/>
                </mxCell>
                <mxCell id="GSVdhNLgLnMVehnlgmYs-8" value="AZURE GATEWAY INGRESS CONTROLLER" style="text;html=1;align=center;verticalAlign=middle;resizable=0;points=[];autosize=1;strokeColor=none;fillColor=none;" parent="1" vertex="1">
                    <mxGeometry x="-110" y="-770" width="260" height="20" as="geometry"/>
                </mxCell>
                <mxCell id="GSVdhNLgLnMVehnlgmYs-9" value="worker nodes" style="text;html=1;align=center;verticalAlign=middle;resizable=0;points=[];autosize=1;strokeColor=none;fillColor=none;" parent="1" vertex="1">
                    <mxGeometry x="-40" y="-570" width="90" height="20" as="geometry"/>
                </mxCell>
                <mxCell id="GSVdhNLgLnMVehnlgmYs-10" value="Control Plane" style="text;html=1;align=center;verticalAlign=middle;resizable=0;points=[];autosize=1;strokeColor=none;fillColor=none;" parent="1" vertex="1">
                    <mxGeometry x="-35" y="-440" width="90" height="20" as="geometry"/>
                </mxCell>
                <mxCell id="GSVdhNLgLnMVehnlgmYs-63" style="edgeStyle=orthogonalEdgeStyle;rounded=0;orthogonalLoop=1;jettySize=auto;html=1;entryX=0;entryY=0.5;entryDx=0;entryDy=0;" parent="1" source="GSVdhNLgLnMVehnlgmYs-11" target="GSVdhNLgLnMVehnlgmYs-13" edge="1">
                    <mxGeometry relative="1" as="geometry">
                        <Array as="points">
                            <mxPoint x="830" y="-645"/>
                        </Array>
                    </mxGeometry>
                </mxCell>
                <mxCell id="GSVdhNLgLnMVehnlgmYs-11" value="" style="rounded=1;whiteSpace=wrap;html=1;" parent="1" vertex="1">
                    <mxGeometry x="775" y="-480" width="130" height="280" as="geometry"/>
                </mxCell>
                <mxCell id="GSVdhNLgLnMVehnlgmYs-12" value="VPN" style="rounded=1;whiteSpace=wrap;html=1;" parent="1" vertex="1">
                    <mxGeometry x="534.5" y="-330" width="271" height="20" as="geometry"/>
                </mxCell>
                <mxCell id="GSVdhNLgLnMVehnlgmYs-13" value="" style="rounded=1;whiteSpace=wrap;html=1;" parent="1" vertex="1">
                    <mxGeometry x="1000" y="-770" width="280" height="250" as="geometry"/>
                </mxCell>
                <mxCell id="GSVdhNLgLnMVehnlgmYs-14" value="private link api server" style="aspect=fixed;html=1;points=[];align=center;image;fontSize=12;image=img/lib/azure2/networking/Private_Link.svg;" parent="1" vertex="1">
                    <mxGeometry x="128.73" y="-508" width="51.27" height="47" as="geometry"/>
                </mxCell>
                <mxCell id="GSVdhNLgLnMVehnlgmYs-23" style="edgeStyle=orthogonalEdgeStyle;rounded=0;orthogonalLoop=1;jettySize=auto;html=1;entryX=0.477;entryY=0;entryDx=0;entryDy=0;entryPerimeter=0;" parent="1" source="GSVdhNLgLnMVehnlgmYs-15" target="GSVdhNLgLnMVehnlgmYs-18" edge="1">
                    <mxGeometry relative="1" as="geometry"/>
                </mxCell>
                <mxCell id="GSVdhNLgLnMVehnlgmYs-15" value="" style="sketch=0;aspect=fixed;html=1;points=[];align=center;image;fontSize=12;image=img/lib/mscae/Application_Gateway.svg;" parent="1" vertex="1">
                    <mxGeometry x="-17.5" y="-840" width="50" height="50" as="geometry"/>
                </mxCell>
                <mxCell id="GSVdhNLgLnMVehnlgmYs-24" style="edgeStyle=orthogonalEdgeStyle;rounded=0;orthogonalLoop=1;jettySize=auto;html=1;" parent="1" source="GSVdhNLgLnMVehnlgmYs-18" target="GSVdhNLgLnMVehnlgmYs-19" edge="1">
                    <mxGeometry relative="1" as="geometry"/>
                </mxCell>
                <mxCell id="GSVdhNLgLnMVehnlgmYs-25" style="edgeStyle=orthogonalEdgeStyle;rounded=0;orthogonalLoop=1;jettySize=auto;html=1;entryX=0.5;entryY=0;entryDx=0;entryDy=0;entryPerimeter=0;" parent="1" source="GSVdhNLgLnMVehnlgmYs-18" target="GSVdhNLgLnMVehnlgmYs-21" edge="1">
                    <mxGeometry relative="1" as="geometry"/>
                </mxCell>
                <mxCell id="GSVdhNLgLnMVehnlgmYs-26" style="edgeStyle=orthogonalEdgeStyle;rounded=0;orthogonalLoop=1;jettySize=auto;html=1;entryX=0.5;entryY=0;entryDx=0;entryDy=0;entryPerimeter=0;" parent="1" source="GSVdhNLgLnMVehnlgmYs-18" target="GSVdhNLgLnMVehnlgmYs-20" edge="1">
                    <mxGeometry relative="1" as="geometry"/>
                </mxCell>
                <mxCell id="GSVdhNLgLnMVehnlgmYs-18" value="ingress" style="rounded=1;whiteSpace=wrap;html=1;" parent="1" vertex="1">
                    <mxGeometry x="-150" y="-730" width="330" height="20" as="geometry"/>
                </mxCell>
                <mxCell id="GSVdhNLgLnMVehnlgmYs-34" style="edgeStyle=orthogonalEdgeStyle;rounded=0;orthogonalLoop=1;jettySize=auto;html=1;entryX=0.5;entryY=0.167;entryDx=0;entryDy=0;entryPerimeter=0;" parent="1" source="GSVdhNLgLnMVehnlgmYs-19" target="GSVdhNLgLnMVehnlgmYs-27" edge="1">
                    <mxGeometry relative="1" as="geometry"/>
                </mxCell>
                <mxCell id="GSVdhNLgLnMVehnlgmYs-35" style="edgeStyle=orthogonalEdgeStyle;rounded=0;orthogonalLoop=1;jettySize=auto;html=1;entryX=0.5;entryY=0;entryDx=0;entryDy=0;entryPerimeter=0;" parent="1" source="GSVdhNLgLnMVehnlgmYs-19" target="GSVdhNLgLnMVehnlgmYs-22" edge="1">
                    <mxGeometry relative="1" as="geometry"/>
                </mxCell>
                <mxCell id="GSVdhNLgLnMVehnlgmYs-19" value="" style="sketch=0;html=1;dashed=0;whitespace=wrap;fillColor=#2875E2;strokeColor=#ffffff;points=[[0.005,0.63,0],[0.1,0.2,0],[0.9,0.2,0],[0.5,0,0],[0.995,0.63,0],[0.72,0.99,0],[0.5,1,0],[0.28,0.99,0]];shape=mxgraph.kubernetes.icon;prIcon=svc" parent="1" vertex="1">
                    <mxGeometry x="-125" y="-690" width="45" height="40" as="geometry"/>
                </mxCell>
                <mxCell id="GSVdhNLgLnMVehnlgmYs-31" style="edgeStyle=orthogonalEdgeStyle;rounded=0;orthogonalLoop=1;jettySize=auto;html=1;entryX=0.46;entryY=0.188;entryDx=0;entryDy=0;entryPerimeter=0;" parent="1" source="GSVdhNLgLnMVehnlgmYs-20" target="GSVdhNLgLnMVehnlgmYs-29" edge="1">
                    <mxGeometry relative="1" as="geometry"/>
                </mxCell>
                <mxCell id="GSVdhNLgLnMVehnlgmYs-32" style="edgeStyle=orthogonalEdgeStyle;rounded=0;orthogonalLoop=1;jettySize=auto;html=1;entryX=0.5;entryY=0;entryDx=0;entryDy=0;entryPerimeter=0;" parent="1" source="GSVdhNLgLnMVehnlgmYs-20" target="GSVdhNLgLnMVehnlgmYs-30" edge="1">
                    <mxGeometry relative="1" as="geometry"/>
                </mxCell>
                <mxCell id="GSVdhNLgLnMVehnlgmYs-20" value="" style="sketch=0;html=1;dashed=0;whitespace=wrap;fillColor=#2875E2;strokeColor=#ffffff;points=[[0.005,0.63,0],[0.1,0.2,0],[0.9,0.2,0],[0.5,0,0],[0.995,0.63,0],[0.72,0.99,0],[0.5,1,0],[0.28,0.99,0]];shape=mxgraph.kubernetes.icon;prIcon=svc" parent="1" vertex="1">
                    <mxGeometry x="-7.5" y="-680" width="45" height="40" as="geometry"/>
                </mxCell>
                <mxCell id="GSVdhNLgLnMVehnlgmYs-33" style="edgeStyle=orthogonalEdgeStyle;rounded=0;orthogonalLoop=1;jettySize=auto;html=1;entryX=0.5;entryY=0;entryDx=0;entryDy=0;entryPerimeter=0;" parent="1" source="GSVdhNLgLnMVehnlgmYs-21" target="GSVdhNLgLnMVehnlgmYs-28" edge="1">
                    <mxGeometry relative="1" as="geometry"/>
                </mxCell>
                <mxCell id="GSVdhNLgLnMVehnlgmYs-21" value="" style="sketch=0;html=1;dashed=0;whitespace=wrap;fillColor=#2875E2;strokeColor=#ffffff;points=[[0.005,0.63,0],[0.1,0.2,0],[0.9,0.2,0],[0.5,0,0],[0.995,0.63,0],[0.72,0.99,0],[0.5,1,0],[0.28,0.99,0]];shape=mxgraph.kubernetes.icon;prIcon=svc" parent="1" vertex="1">
                    <mxGeometry x="130" y="-690" width="45" height="40" as="geometry"/>
                </mxCell>
                <mxCell id="GSVdhNLgLnMVehnlgmYs-22" value="" style="sketch=0;html=1;dashed=0;whitespace=wrap;fillColor=#2875E2;strokeColor=#ffffff;points=[[0.005,0.63,0],[0.1,0.2,0],[0.9,0.2,0],[0.5,0,0],[0.995,0.63,0],[0.72,0.99,0],[0.5,1,0],[0.28,0.99,0]];shape=mxgraph.kubernetes.icon;prIcon=pod" parent="1" vertex="1">
                    <mxGeometry x="-160" y="-618" width="50" height="48" as="geometry"/>
                </mxCell>
                <mxCell id="GSVdhNLgLnMVehnlgmYs-27" value="" style="sketch=0;html=1;dashed=0;whitespace=wrap;fillColor=#2875E2;strokeColor=#ffffff;points=[[0.005,0.63,0],[0.1,0.2,0],[0.9,0.2,0],[0.5,0,0],[0.995,0.63,0],[0.72,0.99,0],[0.5,1,0],[0.28,0.99,0]];shape=mxgraph.kubernetes.icon;prIcon=pod" parent="1" vertex="1">
                    <mxGeometry x="-90" y="-618" width="50" height="48" as="geometry"/>
                </mxCell>
                <mxCell id="GSVdhNLgLnMVehnlgmYs-28" value="" style="sketch=0;html=1;dashed=0;whitespace=wrap;fillColor=#2875E2;strokeColor=#ffffff;points=[[0.005,0.63,0],[0.1,0.2,0],[0.9,0.2,0],[0.5,0,0],[0.995,0.63,0],[0.72,0.99,0],[0.5,1,0],[0.28,0.99,0]];shape=mxgraph.kubernetes.icon;prIcon=pod" parent="1" vertex="1">
                    <mxGeometry x="130" y="-620" width="50" height="48" as="geometry"/>
                </mxCell>
                <mxCell id="GSVdhNLgLnMVehnlgmYs-29" value="" style="sketch=0;html=1;dashed=0;whitespace=wrap;fillColor=#2875E2;strokeColor=#ffffff;points=[[0.005,0.63,0],[0.1,0.2,0],[0.9,0.2,0],[0.5,0,0],[0.995,0.63,0],[0.72,0.99,0],[0.5,1,0],[0.28,0.99,0]];shape=mxgraph.kubernetes.icon;prIcon=pod" parent="1" vertex="1">
                    <mxGeometry x="-5" y="-620" width="50" height="48" as="geometry"/>
                </mxCell>
                <mxCell id="GSVdhNLgLnMVehnlgmYs-30" value="" style="sketch=0;html=1;dashed=0;whitespace=wrap;fillColor=#2875E2;strokeColor=#ffffff;points=[[0.005,0.63,0],[0.1,0.2,0],[0.9,0.2,0],[0.5,0,0],[0.995,0.63,0],[0.72,0.99,0],[0.5,1,0],[0.28,0.99,0]];shape=mxgraph.kubernetes.icon;prIcon=pod" parent="1" vertex="1">
                    <mxGeometry x="60" y="-618" width="50" height="48" as="geometry"/>
                </mxCell>
                <mxCell id="GSVdhNLgLnMVehnlgmYs-37" style="edgeStyle=orthogonalEdgeStyle;rounded=0;orthogonalLoop=1;jettySize=auto;html=1;" parent="1" source="GSVdhNLgLnMVehnlgmYs-36" target="GSVdhNLgLnMVehnlgmYs-15" edge="1">
                    <mxGeometry relative="1" as="geometry"/>
                </mxCell>
                <mxCell id="GSVdhNLgLnMVehnlgmYs-36" value="waf" style="aspect=fixed;html=1;points=[];align=center;image;fontSize=12;image=img/lib/azure2/networking/Web_Application_Firewall_Policies_WAF.svg;" parent="1" vertex="1">
                    <mxGeometry x="135.5" y="-834.5" width="39" height="39" as="geometry"/>
                </mxCell>
                <mxCell id="GSVdhNLgLnMVehnlgmYs-42" style="edgeStyle=orthogonalEdgeStyle;rounded=0;orthogonalLoop=1;jettySize=auto;html=1;startArrow=none;" parent="1" source="GSVdhNLgLnMVehnlgmYs-39" target="GSVdhNLgLnMVehnlgmYs-14" edge="1">
                    <mxGeometry relative="1" as="geometry"/>
                </mxCell>
                <mxCell id="GSVdhNLgLnMVehnlgmYs-38" value="" style="sketch=0;html=1;dashed=0;whitespace=wrap;fillColor=#2875E2;strokeColor=#ffffff;points=[[0.005,0.63,0],[0.1,0.2,0],[0.9,0.2,0],[0.5,0,0],[0.995,0.63,0],[0.72,0.99,0],[0.5,1,0],[0.28,0.99,0]];shape=mxgraph.kubernetes.icon;prIcon=master" parent="1" vertex="1">
                    <mxGeometry x="-160" y="-509" width="50" height="48" as="geometry"/>
                </mxCell>
                <mxCell id="GSVdhNLgLnMVehnlgmYs-41" style="edgeStyle=orthogonalEdgeStyle;rounded=0;orthogonalLoop=1;jettySize=auto;html=1;" parent="1" source="GSVdhNLgLnMVehnlgmYs-39" target="GSVdhNLgLnMVehnlgmYs-14" edge="1">
                    <mxGeometry relative="1" as="geometry"/>
                </mxCell>
                <mxCell id="GSVdhNLgLnMVehnlgmYs-43" value="svc" style="text;html=1;align=center;verticalAlign=middle;resizable=0;points=[];autosize=1;strokeColor=none;fillColor=none;" parent="1" vertex="1">
                    <mxGeometry x="-141" y="-660" width="30" height="20" as="geometry"/>
                </mxCell>
                <mxCell id="GSVdhNLgLnMVehnlgmYs-44" value="svc" style="text;html=1;align=center;verticalAlign=middle;resizable=0;points=[];autosize=1;strokeColor=none;fillColor=none;" parent="1" vertex="1">
                    <mxGeometry x="-17.5" y="-650" width="30" height="20" as="geometry"/>
                </mxCell>
                <mxCell id="GSVdhNLgLnMVehnlgmYs-45" value="svc" style="text;html=1;align=center;verticalAlign=middle;resizable=0;points=[];autosize=1;strokeColor=none;fillColor=none;" parent="1" vertex="1">
                    <mxGeometry x="120" y="-655" width="30" height="20" as="geometry"/>
                </mxCell>
                <mxCell id="GSVdhNLgLnMVehnlgmYs-46" value="pod" style="text;html=1;align=center;verticalAlign=middle;resizable=0;points=[];autosize=1;strokeColor=none;fillColor=none;" parent="1" vertex="1">
                    <mxGeometry x="-160" y="-572" width="40" height="20" as="geometry"/>
                </mxCell>
                <mxCell id="GSVdhNLgLnMVehnlgmYs-48" value="pod" style="text;html=1;align=center;verticalAlign=middle;resizable=0;points=[];autosize=1;strokeColor=none;fillColor=none;" parent="1" vertex="1">
                    <mxGeometry x="-90" y="-572" width="40" height="20" as="geometry"/>
                </mxCell>
                <mxCell id="GSVdhNLgLnMVehnlgmYs-49" value="pod" style="text;html=1;align=center;verticalAlign=middle;resizable=0;points=[];autosize=1;strokeColor=none;fillColor=none;" parent="1" vertex="1">
                    <mxGeometry x="60" y="-572" width="40" height="20" as="geometry"/>
                </mxCell>
                <mxCell id="GSVdhNLgLnMVehnlgmYs-50" value="pod" style="text;html=1;align=center;verticalAlign=middle;resizable=0;points=[];autosize=1;strokeColor=none;fillColor=none;" parent="1" vertex="1">
                    <mxGeometry x="130" y="-572" width="40" height="20" as="geometry"/>
                </mxCell>
                <mxCell id="GSVdhNLgLnMVehnlgmYs-52" value="pull" style="edgeStyle=orthogonalEdgeStyle;rounded=0;orthogonalLoop=1;jettySize=auto;html=1;entryX=0;entryY=0.25;entryDx=0;entryDy=0;" parent="1" source="GSVdhNLgLnMVehnlgmYs-51" target="GSVdhNLgLnMVehnlgmYs-5" edge="1">
                    <mxGeometry relative="1" as="geometry"/>
                </mxCell>
                <mxCell id="GSVdhNLgLnMVehnlgmYs-51" value="Container&#10;Registry" style="sketch=0;html=1;fillColor=#5184F3;strokeColor=none;verticalAlign=top;labelPosition=center;verticalLabelPosition=bottom;align=center;spacingTop=-6;fontSize=11;fontStyle=1;fontColor=#999999;shape=mxgraph.gcp2.hexIcon;prIcon=container_registry" parent="1" vertex="1">
                    <mxGeometry x="-370" y="-750" width="66" height="58.5" as="geometry"/>
                </mxCell>
                <mxCell id="GSVdhNLgLnMVehnlgmYs-54" style="edgeStyle=orthogonalEdgeStyle;rounded=0;orthogonalLoop=1;jettySize=auto;html=1;" parent="1" source="GSVdhNLgLnMVehnlgmYs-53" target="GSVdhNLgLnMVehnlgmYs-5" edge="1">
                    <mxGeometry relative="1" as="geometry"/>
                </mxCell>
                <mxCell id="GSVdhNLgLnMVehnlgmYs-59" value="secrets" style="edgeLabel;html=1;align=center;verticalAlign=middle;resizable=0;points=[];" parent="GSVdhNLgLnMVehnlgmYs-54" vertex="1" connectable="0">
                    <mxGeometry x="-0.4671" y="4" relative="1" as="geometry">
                        <mxPoint x="1" y="1" as="offset"/>
                    </mxGeometry>
                </mxCell>
                <mxCell id="GSVdhNLgLnMVehnlgmYs-57" style="edgeStyle=orthogonalEdgeStyle;rounded=0;orthogonalLoop=1;jettySize=auto;html=1;" parent="1" source="GSVdhNLgLnMVehnlgmYs-53" target="GSVdhNLgLnMVehnlgmYs-15" edge="1">
                    <mxGeometry relative="1" as="geometry">
                        <Array as="points">
                            <mxPoint x="-410" y="-607"/>
                            <mxPoint x="-410" y="-815"/>
                        </Array>
                    </mxGeometry>
                </mxCell>
                <mxCell id="GSVdhNLgLnMVehnlgmYs-58" value="certs" style="edgeLabel;html=1;align=center;verticalAlign=middle;resizable=0;points=[];" parent="GSVdhNLgLnMVehnlgmYs-57" vertex="1" connectable="0">
                    <mxGeometry x="0.0584" y="3" relative="1" as="geometry">
                        <mxPoint as="offset"/>
                    </mxGeometry>
                </mxCell>
                <mxCell id="GSVdhNLgLnMVehnlgmYs-53" value="key vault" style="aspect=fixed;html=1;points=[];align=center;image;fontSize=12;image=img/lib/azure2/security/Key_Vaults.svg;" parent="1" vertex="1">
                    <mxGeometry x="-384.5" y="-635" width="55" height="55" as="geometry"/>
                </mxCell>
                <mxCell id="GSVdhNLgLnMVehnlgmYs-56" style="edgeStyle=orthogonalEdgeStyle;rounded=0;orthogonalLoop=1;jettySize=auto;html=1;" parent="1" source="GSVdhNLgLnMVehnlgmYs-55" target="GSVdhNLgLnMVehnlgmYs-15" edge="1">
                    <mxGeometry relative="1" as="geometry"/>
                </mxCell>
                <mxCell id="GSVdhNLgLnMVehnlgmYs-55" value="" style="ellipse;shape=cloud;whiteSpace=wrap;html=1;" parent="1" vertex="1">
                    <mxGeometry x="-52.5" y="-1100" width="120" height="80" as="geometry"/>
                </mxCell>
                <mxCell id="GSVdhNLgLnMVehnlgmYs-61" style="edgeStyle=orthogonalEdgeStyle;rounded=0;orthogonalLoop=1;jettySize=auto;html=1;entryX=0;entryY=0.75;entryDx=0;entryDy=0;" parent="1" source="GSVdhNLgLnMVehnlgmYs-60" target="GSVdhNLgLnMVehnlgmYs-5" edge="1">
                    <mxGeometry relative="1" as="geometry">
                        <Array as="points">
                            <mxPoint x="-260" y="-505"/>
                            <mxPoint x="-260" y="-597"/>
                        </Array>
                    </mxGeometry>
                </mxCell>
                <mxCell id="GSVdhNLgLnMVehnlgmYs-60" value="Policies" style="sketch=0;aspect=fixed;html=1;points=[];align=center;image;fontSize=12;image=img/lib/mscae/Policy.svg;" parent="1" vertex="1">
                    <mxGeometry x="-379.5" y="-530" width="45" height="50" as="geometry"/>
                </mxCell>
                <mxCell id="GSVdhNLgLnMVehnlgmYs-62" value="db" style="strokeWidth=2;html=1;shape=mxgraph.flowchart.database;whiteSpace=wrap;" parent="1" vertex="1">
                    <mxGeometry x="1080" y="-710" width="60" height="60" as="geometry"/>
                </mxCell>
                <mxCell id="GSVdhNLgLnMVehnlgmYs-68" value="azure transit vnet" style="text;html=1;align=center;verticalAlign=middle;resizable=0;points=[];autosize=1;strokeColor=none;fillColor=none;" parent="1" vertex="1">
                    <mxGeometry x="435" y="-200" width="110" height="20" as="geometry"/>
                </mxCell>
                <mxCell id="GSVdhNLgLnMVehnlgmYs-69" value="DataCenter vnet" style="text;html=1;align=center;verticalAlign=middle;resizable=0;points=[];autosize=1;strokeColor=none;fillColor=none;" parent="1" vertex="1">
                    <mxGeometry x="785" y="-205" width="110" height="30" as="geometry"/>
                </mxCell>
                <mxCell id="GSVdhNLgLnMVehnlgmYs-71" style="edgeStyle=orthogonalEdgeStyle;rounded=0;orthogonalLoop=1;jettySize=auto;html=1;strokeWidth=3;" parent="1" source="GSVdhNLgLnMVehnlgmYs-70" edge="1">
                    <mxGeometry relative="1" as="geometry">
                        <mxPoint x="-290" y="-720" as="targetPoint"/>
                    </mxGeometry>
                </mxCell>
                <mxCell id="GSVdhNLgLnMVehnlgmYs-70" value="&#10;&#10;&lt;div style=&quot;color: rgb(212, 212, 212); background-color: rgb(30, 30, 30); font-family: consolas, &amp;quot;courier new&amp;quot;, monospace; font-weight: normal; font-size: 14px; line-height: 19px;&quot;&gt;&lt;div&gt;&lt;span style=&quot;color: #ce9178&quot;&gt;ACR Pull&lt;/span&gt;&lt;/div&gt;&lt;/div&gt;&#10;&#10;" style="shadow=0;dashed=0;html=1;strokeColor=none;fillColor=#4495D1;labelPosition=center;verticalLabelPosition=bottom;verticalAlign=top;align=center;outlineConnect=0;shape=mxgraph.veeam.2d.role;" parent="1" vertex="1">
                    <mxGeometry x="-355.4" y="-970.8" width="36.8" height="50.8" as="geometry"/>
                </mxCell>
                <mxCell id="GSVdhNLgLnMVehnlgmYs-73" style="edgeStyle=orthogonalEdgeStyle;rounded=0;orthogonalLoop=1;jettySize=auto;html=1;strokeWidth=3;" parent="1" source="GSVdhNLgLnMVehnlgmYs-72" edge="1">
                    <mxGeometry relative="1" as="geometry">
                        <mxPoint x="-310" y="-610" as="targetPoint"/>
                        <Array as="points">
                            <mxPoint x="-310" y="-650"/>
                        </Array>
                    </mxGeometry>
                </mxCell>
                <mxCell id="GSVdhNLgLnMVehnlgmYs-72" value="&#10;&#10;&lt;div style=&quot;color: rgb(212, 212, 212); background-color: rgb(30, 30, 30); font-family: consolas, &amp;quot;courier new&amp;quot;, monospace; font-weight: normal; font-size: 14px; line-height: 19px;&quot;&gt;&lt;div&gt;&lt;span style=&quot;color: #ce9178&quot;&gt;Managed Identity Operator Contributo&lt;/span&gt;&lt;/div&gt;&lt;/div&gt;&#10;&#10;" style="shadow=0;dashed=0;html=1;strokeColor=none;fillColor=#4495D1;labelPosition=center;verticalLabelPosition=bottom;verticalAlign=top;align=center;outlineConnect=0;shape=mxgraph.veeam.2d.role;" parent="1" vertex="1">
                    <mxGeometry x="-600" y="-675.4" width="36.8" height="50.8" as="geometry"/>
                </mxCell>
                <mxCell id="GSVdhNLgLnMVehnlgmYs-76" style="edgeStyle=orthogonalEdgeStyle;rounded=0;orthogonalLoop=1;jettySize=auto;html=1;entryX=1;entryY=0.332;entryDx=0;entryDy=0;entryPerimeter=0;strokeWidth=3;" parent="1" source="GSVdhNLgLnMVehnlgmYs-74" target="GSVdhNLgLnMVehnlgmYs-5" edge="1">
                    <mxGeometry relative="1" as="geometry"/>
                </mxCell>
                <mxCell id="2" style="edgeStyle=none;html=1;" parent="1" source="GSVdhNLgLnMVehnlgmYs-74" target="GSVdhNLgLnMVehnlgmYs-15" edge="1">
                    <mxGeometry relative="1" as="geometry"/>
                </mxCell>
                <mxCell id="GSVdhNLgLnMVehnlgmYs-74" value="&#10;&#10;&lt;div style=&quot;color: rgb(212, 212, 212); background-color: rgb(30, 30, 30); font-family: consolas, &amp;quot;courier new&amp;quot;, monospace; font-weight: normal; font-size: 14px; line-height: 19px;&quot;&gt;&lt;div&gt;&lt;span style=&quot;color: #ce9178&quot;&gt;Network-Contributor&lt;/span&gt;&lt;/div&gt;&lt;/div&gt;&#10;&#10;" style="shadow=0;dashed=0;html=1;strokeColor=none;fillColor=#4495D1;labelPosition=center;verticalLabelPosition=bottom;verticalAlign=top;align=center;outlineConnect=0;shape=mxgraph.veeam.2d.role;" parent="1" vertex="1">
                    <mxGeometry x="450" y="-740.8" width="26.8" height="30.8" as="geometry"/>
                </mxCell>
                <mxCell id="GSVdhNLgLnMVehnlgmYs-77" value="internet" style="text;html=1;align=center;verticalAlign=middle;resizable=0;points=[];autosize=1;strokeColor=none;fillColor=none;" parent="1" vertex="1">
                    <mxGeometry x="-25" y="-1070" width="60" height="20" as="geometry"/>
                </mxCell>
                <mxCell id="GSVdhNLgLnMVehnlgmYs-83" style="edgeStyle=orthogonalEdgeStyle;rounded=0;orthogonalLoop=1;jettySize=auto;html=1;strokeWidth=3;startArrow=block;startFill=1;" parent="1" source="GSVdhNLgLnMVehnlgmYs-78" edge="1">
                    <mxGeometry relative="1" as="geometry">
                        <mxPoint x="250" y="-1370" as="targetPoint"/>
                    </mxGeometry>
                </mxCell>
                <mxCell id="GSVdhNLgLnMVehnlgmYs-78" value="private&amp;nbsp;" style="sketch=0;aspect=fixed;html=1;points=[];align=center;image;fontSize=12;image=img/lib/mscae/Kubernetes_Services.svg;" parent="1" vertex="1">
                    <mxGeometry x="-81" y="-1400" width="81.08" height="60" as="geometry"/>
                </mxCell>
                <mxCell id="GSVdhNLgLnMVehnlgmYs-79" value="aks" style="text;html=1;align=center;verticalAlign=middle;resizable=0;points=[];autosize=1;strokeColor=none;fillColor=none;" parent="1" vertex="1">
                    <mxGeometry x="-60" y="-1310" width="30" height="20" as="geometry"/>
                </mxCell>
                <mxCell id="GSVdhNLgLnMVehnlgmYs-85" value="IPSEC V2" style="text;html=1;align=center;verticalAlign=middle;resizable=0;points=[];autosize=1;strokeColor=none;fillColor=none;" parent="1" vertex="1">
                    <mxGeometry x="630" y="-300" width="70" height="20" as="geometry"/>
                </mxCell>
                <mxCell id="10" style="edgeStyle=none;html=1;entryX=0;entryY=0.5;entryDx=0;entryDy=0;" parent="1" source="GSVdhNLgLnMVehnlgmYs-88" target="GSVdhNLgLnMVehnlgmYs-6" edge="1">
                    <mxGeometry relative="1" as="geometry">
                        <Array as="points">
                            <mxPoint x="-353" y="-440"/>
                            <mxPoint x="-280" y="-440"/>
                        </Array>
                    </mxGeometry>
                </mxCell>
                <mxCell id="GSVdhNLgLnMVehnlgmYs-88" value="AD" style="aspect=fixed;html=1;points=[];align=center;image;fontSize=12;image=img/lib/azure2/identity/Azure_AD_B2C.svg;" parent="1" vertex="1">
                    <mxGeometry x="-459" y="-474" width="69" height="64" as="geometry"/>
                </mxCell>
                <mxCell id="GSVdhNLgLnMVehnlgmYs-90" value="" style="rounded=1;whiteSpace=wrap;html=1;" parent="1" vertex="1">
                    <mxGeometry x="520" y="-1120" width="120" height="60" as="geometry"/>
                </mxCell>
                <mxCell id="GSVdhNLgLnMVehnlgmYs-91" value="" style="rounded=1;whiteSpace=wrap;html=1;" parent="1" vertex="1">
                    <mxGeometry x="605" y="-1010" width="120" height="150" as="geometry"/>
                </mxCell>
                <mxCell id="GSVdhNLgLnMVehnlgmYs-92" value="" style="rounded=1;whiteSpace=wrap;html=1;" parent="1" vertex="1">
                    <mxGeometry x="745" y="-1120" width="120" height="60" as="geometry"/>
                </mxCell>
                <mxCell id="GSVdhNLgLnMVehnlgmYs-98" style="edgeStyle=orthogonalEdgeStyle;rounded=0;orthogonalLoop=1;jettySize=auto;html=1;entryX=0.07;entryY=0.4;entryDx=0;entryDy=0;entryPerimeter=0;startArrow=block;startFill=1;strokeWidth=3;" parent="1" source="GSVdhNLgLnMVehnlgmYs-93" target="GSVdhNLgLnMVehnlgmYs-96" edge="1">
                    <mxGeometry relative="1" as="geometry">
                        <Array as="points">
                            <mxPoint x="585" y="-1308"/>
                        </Array>
                    </mxGeometry>
                </mxCell>
                <mxCell id="GSVdhNLgLnMVehnlgmYs-99" style="edgeStyle=orthogonalEdgeStyle;rounded=0;orthogonalLoop=1;jettySize=auto;html=1;startArrow=block;startFill=1;strokeWidth=3;" parent="1" source="GSVdhNLgLnMVehnlgmYs-93" target="GSVdhNLgLnMVehnlgmYs-94" edge="1">
                    <mxGeometry relative="1" as="geometry">
                        <Array as="points">
                            <mxPoint x="580" y="-950"/>
                        </Array>
                    </mxGeometry>
                </mxCell>
                <mxCell id="GSVdhNLgLnMVehnlgmYs-93" value="" style="sketch=0;aspect=fixed;html=1;points=[];align=center;image;fontSize=12;image=img/lib/mscae/Application_Gateway.svg;" parent="1" vertex="1">
                    <mxGeometry x="555" y="-1115" width="50" height="50" as="geometry"/>
                </mxCell>
                <mxCell id="GSVdhNLgLnMVehnlgmYs-94" value="private&amp;nbsp;" style="sketch=0;aspect=fixed;html=1;points=[];align=center;image;fontSize=12;image=img/lib/mscae/Kubernetes_Services.svg;" parent="1" vertex="1">
                    <mxGeometry x="624.46" y="-980" width="81.08" height="60" as="geometry"/>
                </mxCell>
                <mxCell id="GSVdhNLgLnMVehnlgmYs-100" style="edgeStyle=orthogonalEdgeStyle;rounded=0;orthogonalLoop=1;jettySize=auto;html=1;startArrow=block;startFill=1;strokeWidth=3;" parent="1" source="GSVdhNLgLnMVehnlgmYs-95" target="GSVdhNLgLnMVehnlgmYs-93" edge="1">
                    <mxGeometry relative="1" as="geometry"/>
                </mxCell>
                <mxCell id="GSVdhNLgLnMVehnlgmYs-101" style="edgeStyle=orthogonalEdgeStyle;rounded=0;orthogonalLoop=1;jettySize=auto;html=1;entryX=0.998;entryY=0.648;entryDx=0;entryDy=0;entryPerimeter=0;startArrow=block;startFill=1;strokeWidth=3;" parent="1" source="GSVdhNLgLnMVehnlgmYs-95" target="GSVdhNLgLnMVehnlgmYs-94" edge="1">
                    <mxGeometry relative="1" as="geometry">
                        <Array as="points">
                            <mxPoint x="790" y="-941"/>
                        </Array>
                    </mxGeometry>
                </mxCell>
                <mxCell id="GSVdhNLgLnMVehnlgmYs-95" value="" style="sketch=0;aspect=fixed;html=1;points=[];align=center;image;fontSize=12;image=img/lib/mscae/API_Management.svg;" parent="1" vertex="1">
                    <mxGeometry x="775" y="-1111" width="50" height="42" as="geometry"/>
                </mxCell>
                <mxCell id="GSVdhNLgLnMVehnlgmYs-96" value="" style="ellipse;shape=cloud;whiteSpace=wrap;html=1;" parent="1" vertex="1">
                    <mxGeometry x="630" y="-1340" width="120" height="80" as="geometry"/>
                </mxCell>
                <mxCell id="GSVdhNLgLnMVehnlgmYs-97" value="internet" style="text;html=1;align=center;verticalAlign=middle;resizable=0;points=[];autosize=1;strokeColor=none;fillColor=none;" parent="1" vertex="1">
                    <mxGeometry x="660" y="-1360" width="60" height="20" as="geometry"/>
                </mxCell>
                <mxCell id="6" style="edgeStyle=none;html=1;" parent="1" source="5" target="GSVdhNLgLnMVehnlgmYs-5" edge="1">
                    <mxGeometry relative="1" as="geometry"/>
                </mxCell>
                <mxCell id="7" style="edgeStyle=none;html=1;entryX=1;entryY=0.25;entryDx=0;entryDy=0;" parent="1" source="5" target="GSVdhNLgLnMVehnlgmYs-6" edge="1">
                    <mxGeometry relative="1" as="geometry"/>
                </mxCell>
                <mxCell id="5" value="&#10;&#10;&lt;div style=&quot;color: rgb(212, 212, 212); background-color: rgb(30, 30, 30); font-family: consolas, &amp;quot;courier new&amp;quot;, monospace; font-weight: normal; font-size: 14px; line-height: 19px;&quot;&gt;&lt;div&gt;&lt;span style=&quot;color: #ce9178&quot;&gt;Contributor&lt;/span&gt;&lt;/div&gt;&lt;/div&gt;&#10;&#10;" style="shadow=0;dashed=0;html=1;strokeColor=none;fillColor=#4495D1;labelPosition=center;verticalLabelPosition=bottom;verticalAlign=top;align=center;outlineConnect=0;shape=mxgraph.veeam.2d.role;" parent="1" vertex="1">
                    <mxGeometry x="480" y="-575.4" width="26.8" height="30.8" as="geometry"/>
                </mxCell>
                <mxCell id="GSVdhNLgLnMVehnlgmYs-39" value="" style="sketch=0;html=1;dashed=0;whitespace=wrap;fillColor=#2875E2;strokeColor=#ffffff;points=[[0.005,0.63,0],[0.1,0.2,0],[0.9,0.2,0],[0.5,0,0],[0.995,0.63,0],[0.72,0.99,0],[0.5,1,0],[0.28,0.99,0]];shape=mxgraph.kubernetes.icon;prIcon=master" parent="1" vertex="1">
                    <mxGeometry x="55" y="-510" width="50" height="48" as="geometry"/>
                </mxCell>
                <mxCell id="8" value="" style="edgeStyle=orthogonalEdgeStyle;rounded=0;orthogonalLoop=1;jettySize=auto;html=1;endArrow=none;" parent="1" source="GSVdhNLgLnMVehnlgmYs-38" target="GSVdhNLgLnMVehnlgmYs-39" edge="1">
                    <mxGeometry relative="1" as="geometry">
                        <mxPoint x="-110" y="-485" as="sourcePoint"/>
                        <mxPoint x="128.73000000000002" y="-484.5" as="targetPoint"/>
                    </mxGeometry>
                </mxCell>
                <mxCell id="9" value="&lt;p style=&quot;line-height: 0.2&quot;&gt;Bastions&lt;/p&gt;" style="rounded=1;whiteSpace=wrap;html=1;spacingTop=100;" parent="1" vertex="1">
                    <mxGeometry x="-200" y="-410" width="420" height="190" as="geometry"/>
                </mxCell>
                <mxCell id="14" style="edgeStyle=none;html=1;" parent="1" source="11" target="12" edge="1">
                    <mxGeometry relative="1" as="geometry"/>
                </mxCell>
                <mxCell id="15" style="edgeStyle=none;html=1;" parent="1" source="11" target="13" edge="1">
                    <mxGeometry relative="1" as="geometry"/>
                </mxCell>
                <mxCell id="11" value="agent vm(s)" style="aspect=fixed;html=1;points=[];align=center;image;fontSize=12;image=img/lib/azure2/compute/VM_Images_Classic.svg;" parent="1" vertex="1">
                    <mxGeometry x="-24" y="-404" width="69" height="64" as="geometry"/>
                </mxCell>
                <mxCell id="12" value="disk" style="sketch=0;aspect=fixed;html=1;points=[];align=center;image;fontSize=12;image=img/lib/mscae/MD_snapshot.svg;" parent="1" vertex="1">
                    <mxGeometry x="130" y="-391" width="32.14" height="27" as="geometry"/>
                </mxCell>
                <mxCell id="13" value="nic" style="sketch=0;aspect=fixed;html=1;points=[];align=center;image;fontSize=12;image=img/lib/mscae/NetworkInterfaceCard.svg;" parent="1" vertex="1">
                    <mxGeometry x="170" y="-345.5" width="23.76" height="27" as="geometry"/>
                </mxCell>
                <mxCell id="17" style="edgeStyle=none;html=1;entryX=0;entryY=0.75;entryDx=0;entryDy=0;" parent="1" source="16" target="GSVdhNLgLnMVehnlgmYs-6" edge="1">
                    <mxGeometry relative="1" as="geometry">
                        <Array as="points">
                            <mxPoint x="-280" y="-400"/>
                        </Array>
                    </mxGeometry>
                </mxCell>
                <mxCell id="18" style="edgeStyle=none;html=1;" parent="1" source="16" target="11" edge="1">
                    <mxGeometry relative="1" as="geometry"/>
                </mxCell>
                <mxCell id="16" value="&#10;&#10;&lt;div style=&quot;color: rgb(212, 212, 212); background-color: rgb(30, 30, 30); font-family: consolas, &amp;quot;courier new&amp;quot;, monospace; font-weight: normal; font-size: 14px; line-height: 19px;&quot;&gt;&lt;div&gt;&lt;span style=&quot;color: #ce9178&quot;&gt;Kubernetes Service RBAC Writer&lt;/span&gt;&lt;/div&gt;&lt;/div&gt;&#10;&#10;" style="shadow=0;dashed=0;html=1;strokeColor=none;fillColor=#4495D1;labelPosition=center;verticalLabelPosition=bottom;verticalAlign=top;align=center;outlineConnect=0;shape=mxgraph.veeam.2d.role;" parent="1" vertex="1">
                    <mxGeometry x="-500" y="-387.4" width="26.8" height="30.8" as="geometry"/>
                </mxCell>
                <mxCell id="19" value="Master" style="text;html=1;align=center;verticalAlign=middle;resizable=0;points=[];autosize=1;strokeColor=none;fillColor=none;" parent="1" vertex="1">
                    <mxGeometry x="-160" y="-528" width="50" height="20" as="geometry"/>
                </mxCell>
                <mxCell id="20" value="Master" style="text;html=1;align=center;verticalAlign=middle;resizable=0;points=[];autosize=1;strokeColor=none;fillColor=none;" parent="1" vertex="1">
                    <mxGeometry x="55" y="-528" width="50" height="20" as="geometry"/>
                </mxCell>
                <mxCell id="28" style="edgeStyle=none;html=1;" parent="1" source="21" target="22" edge="1">
                    <mxGeometry relative="1" as="geometry"/>
                </mxCell>
                <mxCell id="21" value="azure devops" style="aspect=fixed;html=1;points=[];align=center;image;fontSize=12;image=img/lib/azure2/devops/Azure_DevOps.svg;" parent="1" vertex="1">
                    <mxGeometry x="-150" y="-190" width="64" height="64" as="geometry"/>
                </mxCell>
                <mxCell id="29" style="edgeStyle=none;html=1;strokeColor=#CC0000;" parent="1" source="22" target="11" edge="1">
                    <mxGeometry relative="1" as="geometry">
                        <Array as="points">
                            <mxPoint x="-285" y="-310"/>
                            <mxPoint x="-280" y="-320"/>
                            <mxPoint x="-110" y="-320"/>
                        </Array>
                    </mxGeometry>
                </mxCell>
                <mxCell id="22" value="Pipeline" style="sketch=0;aspect=fixed;html=1;points=[];align=center;image;fontSize=12;image=img/lib/mscae/Azure_Pipelines.svg;" parent="1" vertex="1">
                    <mxGeometry x="-310" y="-183" width="50" height="50" as="geometry"/>
                </mxCell>
                <mxCell id="23" value="Workspace" style="aspect=fixed;html=1;points=[];align=center;image;fontSize=12;image=img/lib/azure2/analytics/Log_Analytics_Workspaces.svg;" parent="1" vertex="1">
                    <mxGeometry x="371" y="-970.8" width="64" height="64" as="geometry"/>
                </mxCell>
                <mxCell id="34" style="edgeStyle=none;html=1;strokeColor=#CC0000;" parent="1" source="32" target="11" edge="1">
                    <mxGeometry relative="1" as="geometry"/>
                </mxCell>
                <mxCell id="32" value="ssh key" style="aspect=fixed;html=1;points=[];align=center;image;fontSize=12;image=img/lib/azure2/other/SSH_Keys.svg;" parent="1" vertex="1">
                    <mxGeometry x="84" y="-310" width="56" height="49.41" as="geometry"/>
                </mxCell>
                <mxCell id="36" style="edgeStyle=none;html=1;entryX=0.995;entryY=0.63;entryDx=0;entryDy=0;entryPerimeter=0;" parent="1" source="35" target="GSVdhNLgLnMVehnlgmYs-21" edge="1">
                    <mxGeometry relative="1" as="geometry"/>
                </mxCell>
                <mxCell id="35" value="nginx controller internal" style="aspect=fixed;html=1;points=[];align=center;image;fontSize=12;image=img/lib/azure2/networking/Load_Balancers.svg;" parent="1" vertex="1">
                    <mxGeometry x="250" y="-697" width="62" height="62" as="geometry"/>
                </mxCell>
                <mxCell id="38" style="edgeStyle=none;html=1;" parent="1" source="37" target="35" edge="1">
                    <mxGeometry relative="1" as="geometry">
                        <Array as="points">
                            <mxPoint x="860" y="-330"/>
                            <mxPoint x="690" y="-330"/>
                            <mxPoint x="520" y="-330"/>
                        </Array>
                    </mxGeometry>
                </mxCell>
                <mxCell id="37" value="Firewall" style="image;html=1;image=img/lib/clip_art/networking/Firewall_02_128x128.png" parent="1" vertex="1">
                    <mxGeometry x="1070" y="-636" width="80" height="80" as="geometry"/>
                </mxCell>
                <mxCell id="GSVdhNLgLnMVehnlgmYs-80" value="IGW" style="sketch=0;aspect=fixed;html=1;points=[];align=center;image;fontSize=12;image=img/lib/mscae/VPN_Gateway.svg;" parent="1" vertex="1">
                    <mxGeometry x="535" y="-340" width="45" height="50" as="geometry"/>
                </mxCell>
                <mxCell id="GSVdhNLgLnMVehnlgmYs-81" value="LGW" style="sketch=0;aspect=fixed;html=1;points=[];align=center;image;fontSize=12;image=img/lib/mscae/Local_Network_Gateways.svg;" parent="1" vertex="1">
                    <mxGeometry x="770" y="-345" width="50" height="50" as="geometry"/>
                </mxCell>
                <mxCell id="39" value="" style="sketch=0;pointerEvents=1;shadow=0;dashed=0;html=1;strokeColor=none;fillColor=#434445;aspect=fixed;labelPosition=center;verticalLabelPosition=bottom;verticalAlign=top;align=center;outlineConnect=0;shape=mxgraph.vvd.datacenter;" vertex="1" parent="1">
                    <mxGeometry x="249.38" y="-1430" width="121.62" height="90" as="geometry"/>
                </mxCell>
                <mxCell id="40" value="DataCenter" style="text;html=1;align=center;verticalAlign=middle;resizable=0;points=[];autosize=1;strokeColor=none;fillColor=none;" vertex="1" parent="1">
                    <mxGeometry x="270" y="-1340" width="80" height="30" as="geometry"/>
                </mxCell>
            </root>
        </mxGraphModel>
    </diagram>
</mxfile>